<?xml version="1.0" encoding="UTF-8"?>
<!DOCTYPE svg PUBLIC "-//W3C//DTD SVG 1.1//EN" "http://www.w3.org/Graphics/SVG/1.1/DTD/svg11.dtd">
<svg xmlns="http://www.w3.org/2000/svg" version="1.1" width="150px" height="150px" style="shape-rendering:geometricPrecision; text-rendering:geometricPrecision; image-rendering:optimizeQuality; fill-rule:evenodd; clip-rule:evenodd" xmlns:xlink="http://www.w3.org/1999/xlink">
<g><path style="opacity:1" fill="#ffcd38" d="M 65.5,24.5 C 96.718,22.5007 116.218,36.5007 124,66.5C 126.427,87.8086 118.927,104.642 101.5,117C 74.0514,130.711 50.8847,125.545 32,101.5C 19.6661,77.9081 22.4995,56.4081 40.5,37C 48.1101,31.1949 56.4434,27.0283 65.5,24.5 Z M 68.5,32.5 C 70.1992,32.3398 71.8659,32.5065 73.5,33C 71.243,35.3687 68.9097,36.0353 66.5,35C 67.0556,33.9889 67.7222,33.1556 68.5,32.5 Z M 57.5,35.5 C 58.5,35.5 59.5,35.5 60.5,35.5C 60.8511,37.8695 61.0178,40.2028 61,42.5C 58.6255,44.539 56.6255,46.8723 55,49.5C 54.5565,44.6068 55.3899,39.9401 57.5,35.5 Z M 80.5,36.5 C 86.052,39.5558 90.052,44.0558 92.5,50C 91.1285,52.5149 90.1285,55.1816 89.5,58C 85.6394,60.0132 81.4728,61.1798 77,61.5C 72.9516,56.8899 70.1182,51.5565 68.5,45.5C 71.953,41.706 75.953,38.706 80.5,36.5 Z M 92.5,38.5 C 92.56,37.9569 92.8933,37.6236 93.5,37.5C 98.5566,40.0518 102.89,43.5518 106.5,48C 105.975,48.6924 105.308,49.1924 104.5,49.5C 102.78,48.066 100.78,47.2326 98.5,47C 96.6009,44.0123 94.6009,41.1789 92.5,38.5 Z M 46.5,42.5 C 47.5862,42.62 48.2528,43.2867 48.5,44.5C 47.8179,48.1379 47.3179,51.8046 47,55.5C 39.2304,61.0782 38.7304,67.2449 45.5,74C 42.7642,83.9016 43.0975,93.735 46.5,103.5C 43.4973,102.358 40.9973,100.024 39,96.5C 28.7969,76.7208 31.2969,58.7208 46.5,42.5 Z M 62.5,50.5 C 65.2752,55.9928 68.6085,61.3262 72.5,66.5C 70.8425,70.8992 71.5092,74.8992 74.5,78.5C 72.3912,82.6036 71.0579,86.9369 70.5,91.5C 68.2271,92.7353 66.3938,92.4019 65,90.5C 61.6939,85.554 59.1939,80.2207 57.5,74.5C 62.4222,68.948 62.7555,63.1146 58.5,57C 59.7125,54.7381 61.0459,52.5715 62.5,50.5 Z M 107.5,54.5 C 109.144,54.2865 110.644,54.6198 112,55.5C 115.518,63.4255 116.684,71.5921 115.5,80C 114.056,80.7805 112.723,80.6139 111.5,79.5C 107.072,75.1773 104.739,69.844 104.5,63.5C 106.092,60.725 107.092,57.725 107.5,54.5 Z M 92.5,62.5 C 95.4743,62.6445 97.641,63.9778 99,66.5C 99.2868,68.8907 99.7868,71.2241 100.5,73.5C 97.8748,77.0589 94.8748,77.2256 91.5,74C 92.5789,71.1008 92.2456,68.2675 90.5,65.5C 91.1925,64.4822 91.8592,63.4822 92.5,62.5 Z M 50.5,77.5 C 53.1889,83.8644 56.6889,89.8644 61,95.5C 61.3333,98.5 61.6667,101.5 62,104.5C 62.5408,107.209 64.0408,109.209 66.5,110.5C 67.4519,112.045 67.7852,113.712 67.5,115.5C 62.4755,115.112 58.3088,113.112 55,109.5C 51.0369,99.2112 49.5369,88.5445 50.5,77.5 Z M 86.5,79.5 C 89.1456,80.4866 91.8122,81.4866 94.5,82.5C 95.4978,85.1636 96.9978,87.497 99,89.5C 99.2002,96.5645 97.2002,102.898 93,108.5C 88.7065,108.112 84.8731,106.612 81.5,104C 82.5762,102.274 82.7429,100.441 82,98.5C 80.6378,95.7644 78.8044,93.4311 76.5,91.5C 77.9094,88.2732 78.9094,84.9399 79.5,81.5C 82.1522,81.5905 84.4855,80.9238 86.5,79.5 Z M 110.5,86.5 C 111.978,86.238 113.311,86.5713 114.5,87.5C 112.152,94.2044 108.318,99.871 103,104.5C 103.972,99.9294 104.972,95.2628 106,90.5C 107.992,89.6719 109.492,88.3386 110.5,86.5 Z M 75.5,110.5 C 79.5532,111.35 83.5532,112.516 87.5,114C 83.2246,115.158 78.8913,115.992 74.5,116.5C 74.3253,114.379 74.6586,112.379 75.5,110.5 Z"/></g>
</svg>
